<?xml version="1.0" encoding="utf-8"?>
<!-- Generator: Adobe Illustrator 22.1.0, SVG Export Plug-In . SVG Version: 6.00 Build 0)  -->
<svg version="1.1" id="Layer_1" xmlns="http://www.w3.org/2000/svg" xmlns:xlink="http://www.w3.org/1999/xlink" x="0px" y="0px"
	 viewBox="0 0 16 16" style="enable-background:new 0 0 16 16;" xml:space="preserve">
<style type="text/css">
	.bg{fill:#fff;}
	#logs > path {
		fill:none;stroke:url(#lines-gradient);stroke-width:2;stroke-linecap:round;stroke-linejoin:round;
	}
	.st6{fill:#FFFFFF;}
	.st7{fill:#FFFFFF;stroke:#000000;stroke-width:0.5;stroke-linecap:round;stroke-linejoin:round;}
	.st8{fill:none;stroke:#000000;stroke-width:0.4;stroke-miterlimit:10;}
</style>
<rect class="bg" width="16" height="16"/>
<g id="logs">
	<linearGradient id="lines-gradient" gradientUnits="userSpaceOnUse" x1="1" y1="-322" x2="5" y2="-322" gradientTransform="matrix(1 0 0 -1 0 -314)">
		<stop  offset="0" style="stop-color:#FFCCCC"/>
		<stop  offset="1" style="stop-color:#E2B7B7"/>
	</linearGradient>
	<path d="M2,8h2"/>
	<path d="M2,5L2,5"/>
	<path d="M14,2H2"/>
	<path d="M5,11H2"/>
	<path d="M2,14h6"/>
</g>
<g id="mouth">
	<g>
		<path class="st6" d="M16,14.2c-3.2,0-6.6-0.7-7-2.1h14C22.6,13.5,19.2,14.2,16,14.2z"/>
		<path d="M22.6,12.3c-0.7,1-3.3,1.7-6.6,1.7s-5.9-0.7-6.6-1.6L22.6,12.3 M23.3,11.8H8.7c0,1.8,3.6,2.6,7.3,2.6S23.3,13.6,23.3,11.8
			L23.3,11.8z"/>
	</g>
</g>
<g id="eyes">
	<g id="Layer_2_4_">
		<path class="st7" d="M4,5.8c0-2.3,10-2.3,10,0H4z"/>
		<path d="M7,4.6c0-0.8,4-0.8,4,0S10.1,6,9,6S7,5.4,7,4.6z"/>
	</g>
	<g id="Layer_2_2_">
		<path class="st7" d="M18,5.8c0-2.3,10-2.3,10,0H18z"/>
		<path d="M21,4.6c0-0.8,4-0.8,4,0S24.1,6,23,6S21,5.4,21,4.6z"/>
	</g>
</g>
<g id="Layer_3">
	<line class="st8" x1="6" y1="8.1" x2="4.8" y2="9.9"/>
	<line class="st8" x1="10" y1="8.1" x2="8.8" y2="9.9"/>
	<line class="st8" x1="8" y1="8.1" x2="6.8" y2="9.9"/>
	<line class="st8" x1="20" y1="8.1" x2="18.8" y2="9.9"/>
	<line class="st8" x1="24" y1="8.1" x2="22.8" y2="9.9"/>
	<line class="st8" x1="22" y1="8.1" x2="20.8" y2="9.9"/>
</g>
</svg>
